<?xml version="1.0" encoding="utf-8"?>
<svg viewBox="52.0608 42.5038 567.1446 607.9069" xmlns="http://www.w3.org/2000/svg">
  <path d="M 308.873 56.432 Q 332.251 42.935 355.629 56.432 L 568.631 179.409 Q 592.009 192.907 592.009 219.901 L 592.009 465.855 Q 592.009 492.849 568.631 506.347 L 355.629 629.324 Q 332.251 642.821 308.873 629.324 L 95.871 506.347 Q 72.493 492.85 72.493 465.855 L 72.493 219.901 Q 72.493 192.906 95.871 179.409 Z" style="paint-order: fill; stroke: rgb(255, 255, 255); fill: rgb(255, 255, 255);" transform="matrix(0.9999999999999999, 0, 0, 0.9999999999999999, 0, 0)"/>
  <path fill="#04203A" opacity="1.000000" stroke="none" d="M 52.192 306 C 52.192 278.836 52.568 252.164 52.072 225.509 C 51.684 204.622 61.434 190.857 79.303 181.352 C 96.519 172.194 113.475 162.534 130.369 152.787 C 155.88 138.069 181.218 123.051 206.665 108.22 C 239.516 89.073 272.67 70.428 305.168 50.701 C 324.14 39.185 341.529 40.131 360.056 51.479 C 380.949 64.275 402.573 75.881 423.91 87.949 C 447.109 101.07 470.32 114.168 493.568 127.201 C 514.37 138.862 535.192 150.489 556.077 162 C 569.674 169.493 583.543 176.502 597.031 184.183 C 611.368 192.349 619.094 204.595 619.056 221.564 C 618.964 262.723 619.185 303.882 619.183 345.041 C 619.182 388.35 619.334 431.662 618.86 474.966 C 618.696 489.96 611.432 503.394 598.044 508.821 C 574.505 518.363 553.66 532.409 531.527 544.234 C 503.473 559.221 475.956 575.218 448.281 590.908 C 417.877 608.145 387.517 625.461 357.214 642.875 C 340.848 652.279 325.126 653.395 308.1 643.298 C 275.657 624.057 242.527 605.975 209.726 587.336 C 184.693 573.111 159.768 558.698 134.719 544.502 C 114.538 533.065 94.21 521.89 74.013 510.483 C 60.055 502.599 52.353 490.489 52.285 474.486 C 52.046 418.491 52.192 362.495 52.192 306 M 163.877 396.079 C 168.675 395.398 173.49 395.455 176.111 400.478 C 178.337 404.743 176.79 408.947 174.378 412.691 C 169.933 419.592 165.132 426.268 160.814 433.245 C 156.675 439.934 151.888 445.477 144.399 448.859 C 137.804 451.838 131.813 456.155 124.876 460.287 C 129.155 462.707 132.456 464.263 135.4 466.328 C 138.153 468.258 140.202 467.917 142.878 466.08 C 150.074 461.141 157.438 456.438 164.85 451.827 C 169.035 449.223 172.368 446.087 174.047 441.313 C 175.308 437.73 177.095 434.323 178.218 430.705 C 182.343 417.417 190.768 405.465 190.538 390.791 C 190.509 388.961 191.658 387.001 192.596 385.285 C 198.132 375.152 203.768 365.073 209.796 354.468 C 217.506 338.042 225.168 321.593 232.951 305.201 C 235.618 299.583 241.184 297.698 246.555 300.296 C 251.558 302.716 252.972 308.045 250.07 313.81 C 238.997 335.812 227.902 357.803 216.227 380.18 C 213.582 384.818 209.491 388.613 209.555 394.729 C 209.599 398.939 208.504 403.224 207.468 407.362 C 206.467 411.36 204.888 415.213 203.216 419.666 C 201.418 424.678 199.619 429.69 197.232 435.157 C 193.749 442.826 190.604 450.674 186.664 458.101 C 184.071 462.989 180.325 467.018 174.881 469.518 C 169.279 472.092 164.163 475.728 158.835 478.899 C 158.991 479.491 159.147 480.082 159.303 480.674 C 161.458 480.47 164.026 480.955 165.704 479.952 C 178.139 472.52 190.397 464.792 202.99 456.984 C 199.872 449.999 204.325 444.221 206.332 437.359 C 207.326 434.758 208.415 432.189 209.294 429.549 C 211.086 424.167 213.291 419.27 220.785 418.97 C 229.167 419.995 232.483 425.597 229.168 433.259 C 227.38 437.389 225.451 441.458 223.348 446.078 C 224.676 445.909 225.2 445.989 225.544 445.777 C 242.036 435.587 258.478 425.315 275.032 415.226 C 277.351 413.813 280.211 413.285 283.374 412.828 C 285.971 412.767 288.558 415.366 290.933 411.167 C 299.937 395.247 309.499 379.643 318.708 363.836 C 319.604 362.298 320.154 360.034 319.767 358.36 C 317.62 349.058 319.285 345.244 328.68 341.257 C 337.147 341.633 341.727 347.518 340.789 355.863 C 340.454 358.84 341.035 362.42 342.476 365.015 C 350.888 380.166 359.05 392.749 367.58 407.836 C 369.147 410.608 368.428 406.953 371.934 405.251 C 373.637 405.82 378.431 413.02 379.971 413.88 C 394.839 422.181 409.637 430.609 424.502 438.915 C 428.087 440.918 431.849 442.603 435.529 444.435 C 432.021 431.411 427.608 419.484 423.292 407.522 C 420.821 400.671 423.24 395.036 429.355 393 C 434.598 391.254 440.37 394.543 442.405 400.587 C 446.833 413.74 451.424 426.846 455.431 440.128 C 456.701 444.337 456.228 449.053 456.781 453.509 C 456.916 454.592 457.707 455.994 458.617 456.52 C 472.508 464.552 486.456 472.484 500.439 480.354 C 501.418 480.904 502.778 480.776 503.961 480.964 C 504.113 480.453 504.266 479.942 504.418 479.431 C 499.623 476.671 494.792 473.971 490.04 471.138 C 483.438 467.202 476.414 464.182 472.137 456.85 C 463.699 442.386 458.963 426.575 454.443 410.735 C 450.928 398.415 449.04 385.77 441.324 374.838 C 436.301 367.721 432.788 359.521 428.747 351.729 C 422.127 338.963 415.493 326.2 409.131 313.305 C 405.595 306.137 409.723 298.762 417.323 298.463 C 422.59 298.256 425.611 301.531 427.917 306.069 C 439.392 328.652 451.129 351.102 462.585 373.695 C 465.865 380.163 468.845 386.831 471.309 393.643 C 472.57 397.13 471.887 401.287 472.955 404.882 C 475.642 413.931 478.434 422.989 481.95 431.736 C 484.185 437.294 486.584 443.917 491.024 447.23 C 501.171 454.803 512.588 460.686 523.572 467.112 C 524.865 467.869 526.976 468.42 528.199 467.891 C 532.971 465.824 537.539 463.284 543.074 460.466 C 533.234 454.974 524.514 449.602 515.342 445.161 C 508.931 442.056 503.53 438.649 499.748 432.207 C 495.26 424.562 489.339 417.772 484.527 410.298 C 482.598 407.302 480.859 403.416 481.025 400.033 C 481.234 395.744 484.572 392.776 489.227 391.921 C 493.992 391.045 497.241 393.379 499.731 396.92 C 504.866 404.221 509.605 411.809 514.93 418.963 C 517.091 421.864 520.064 424.429 523.175 426.308 C 535.175 433.558 547.449 440.352 559.447 447.605 C 561.784 449.019 562.951 449.425 565.414 447.697 C 569.965 444.506 575.116 442.186 579.865 439.258 C 581.473 438.266 583.089 436.755 583.879 435.091 C 585.197 432.319 583.3 430.628 580.971 429.267 C 557 415.266 533.063 401.207 509.083 387.221 C 505.988 385.417 501.771 384.71 499.676 382.172 C 492.873 373.931 486.99 364.938 480.432 356.483 C 467.195 339.418 453.771 322.498 440.374 305.558 C 435.786 299.758 431.492 293.594 423.985 291.044 C 414.145 287.702 408.628 280.199 404.845 271.035 C 404.47 270.126 403.864 269.305 403.315 268.477 C 384.406 239.915 365.577 211.3 346.521 182.837 C 341.388 175.171 335.564 167.969 329.569 160.223 C 328.041 162.155 326.362 163.987 325.01 166.036 C 315.896 179.849 306.818 193.687 297.793 207.559 C 283.082 230.168 268.025 252.568 253.963 275.574 C 249.296 283.209 243.377 288.166 235.835 292.184 C 231.553 294.465 226.839 296.974 223.952 300.659 C 207.006 322.287 190.788 344.488 173.787 366.072 C 167.315 374.289 162.732 383.688 152.435 389.419 C 131.635 400.997 112.114 414.854 91.853 427.43 C 87.261 430.28 85.738 433.296 88.127 438.755 C 93.296 441.684 98.384 444.773 103.69 447.427 C 105.018 448.091 107.41 447.95 108.695 447.166 C 118.825 440.99 128.624 434.25 138.915 428.367 M 330.764 504.958 C 341.053 506.402 343.793 515.314 337.151 525.581 C 345.126 534.044 352.96 542.624 361.096 550.909 C 367.973 557.914 367.621 556.7 374.924 550.702 C 361.412 524.928 347.911 499.135 334.346 473.376 C 333.153 471.111 331.541 469.065 329.388 467.02 C 314.553 494.807 299.717 522.593 284.654 550.805 C 286.816 551.94 288.867 553.498 291.161 554.06 C 292.815 554.464 295.452 554.193 296.522 553.109 C 305.491 544.023 314.198 534.679 322.99 525.407 C 318.412 520.151 317.406 516.159 319.684 511.143 C 321.666 506.783 325.163 504.679 330.764 504.958 M 279.395 477.845 C 259.553 489.997 239.71 502.15 219.635 514.444 C 220.862 515.219 221.55 515.652 222.237 516.087 C 233.474 523.197 233.511 523.249 244.353 515.492 C 246.488 513.964 249.069 512.203 249.959 509.959 C 252.334 503.98 257.159 500.454 263.787 501.002 C 268.945 501.429 272.798 505.427 273.656 511.243 C 274.377 516.129 270.385 521.138 265.189 523.76 C 260.556 526.097 256.502 529.583 251.683 532.913 C 258.172 536.417 263.48 539.284 268.94 542.232 C 275.023 530.577 280.716 519.411 286.643 508.371 C 296.488 490.033 306.468 471.768 316.427 453.491 C 319.144 448.506 321.878 442.545 328.664 441.03 C 336.275 439.748 340.367 446.154 343.315 451.546 C 357.907 478.23 372.197 505.08 386.611 531.862 C 388.524 535.417 390.539 538.917 392.669 542.731 C 398.203 539.615 403.184 536.81 409.037 533.515 C 403.757 529.9 399.484 526.158 394.545 523.827 C 389.721 521.549 385.948 517.336 386.349 512.104 C 386.79 506.357 391.156 501.17 396.196 500.405 C 401.049 499.669 406.481 503.364 408.492 508.436 C 409.183 510.18 410.255 512.128 411.732 513.138 C 416.219 516.209 420.953 518.928 425.673 521.643 C 426.847 522.318 428.699 523.185 429.605 522.722 C 433.95 520.503 438.077 517.857 442.69 515.12 C 441.634 514.173 441.031 513.407 440.246 512.96 C 419.567 501.187 398.917 489.361 378.131 477.779 C 374.332 475.662 371.441 473.346 370.079 469.049 C 366.575 457.991 363.893 446.504 358.944 436.111 C 350.428 418.225 340.441 401.04 330.626 383.101 C 329.483 383.48 327.776 383.507 327.284 384.294 C 323.258 390.73 318.907 397.052 315.721 403.904 C 311.165 413.703 303.398 421.658 300.919 432.749 C 298.588 443.176 293.507 453.002 291.329 463.445 C 289.813 470.712 286.562 475.036 279.395 477.845 M 330.998 617.602 C 334.22 616.03 337.518 614.594 340.653 612.865 C 368.61 597.439 396.573 582.025 424.465 566.482 C 455.112 549.405 485.706 532.235 516.281 515.031 C 537.92 502.856 559.509 490.591 581.054 478.249 C 582.623 477.35 584.567 475.604 584.746 474.066 C 585.249 469.738 584.921 465.314 584.921 459.569 C 577.992 463.289 572.211 466.359 566.46 469.487 C 543.351 482.054 520.185 494.519 497.167 507.252 C 472.687 520.794 448.352 534.598 423.953 548.288 C 404.759 559.057 385.584 569.862 366.363 580.584 C 354.536 587.181 342.638 593.65 330.298 599.692 C 322.254 594.816 314.323 589.742 306.147 585.1 C 274.912 567.365 243.581 549.799 212.317 532.114 C 179.605 513.609 146.935 495.029 114.233 476.506 C 105.081 471.322 95.882 466.221 86.189 460.793 C 86.189 465.115 86.247 468.738 86.174 472.358 C 86.085 476.849 87.932 479.789 91.994 482.085 C 127.872 502.356 163.63 522.838 199.458 543.197 C 231.279 561.28 263.127 579.314 294.997 597.31 C 306.803 603.976 318.703 610.475 330.998 617.602 M 555.628 359.508 C 545.433 353.698 536.923 343.733 526.704 337.966 C 522.548 335.62 517.393 334.291 514.276 331.001 C 506.337 322.62 499.379 313.317 491.855 304.532 C 486.637 298.439 481.131 292.593 474.843 285.628 C 472.712 293.029 470.75 298.98 469.392 305.065 C 468.961 306.997 469.496 309.773 470.679 311.339 C 481.924 326.234 493.371 340.978 504.835 355.707 C 509.021 361.085 512.446 366.934 519.129 370.248 C 530.632 375.952 541.656 382.615 552.928 388.792 C 557.198 391.133 561.596 393.242 566.038 396.111 C 572.382 400.116 578.727 404.122 586 408.714 C 586 401.95 586.006 396.351 585.999 390.752 C 585.938 336.935 585.903 283.118 585.781 229.302 C 585.762 220.878 582.078 214.343 574.641 210.139 C 568.738 206.803 562.794 203.54 556.87 200.239 C 526.106 183.096 495.334 165.965 464.58 148.803 C 445.216 137.996 425.887 127.126 406.524 116.317 C 385.853 104.776 365.148 93.296 344.484 81.744 C 336.173 77.097 327.983 76.592 319.603 81.665 C 312.936 85.701 306.074 89.412 299.329 93.319 C 259.353 116.476 219.41 139.689 179.408 162.799 C 152.582 178.296 125.695 193.686 98.797 209.058 C 90.265 213.934 85.989 221.131 85.992 230.959 C 86.009 287.779 85.998 344.599 86.011 401.419 C 86.012 402.969 86.179 404.518 86.336 407.243 C 93.116 402.922 99.047 399.142 105.743 395.288 C 117.508 387.905 129.273 380.521 141.69 372.895 C 144.076 370.895 146.843 369.206 148.784 366.841 C 157.613 356.082 166.329 345.225 174.852 334.222 C 182.13 324.827 189.088 315.184 196.52 305.205 C 194.694 299.388 192.602 292.724 190.191 285.048 C 182.192 294.982 174.939 304.189 167.466 313.213 C 159.939 322.302 153.683 332.487 142.401 338.092 C 133.69 342.42 125.753 348.283 117.343 353.245 C 111.781 356.527 105.633 354.618 104.16 349.494 C 102.553 343.906 104.798 338.295 110.12 334.985 C 114.62 332.187 119.32 329.7 123.729 326.77 C 130.303 322.401 137.857 318.788 142.943 313.039 C 155.55 298.788 166.909 283.439 178.937 268.669 C 186.785 259.031 196.064 259.245 203.943 268.848 C 207.389 273.048 211.005 277.109 214.484 281.164 C 220.08 278.233 225.29 275.74 230.24 272.806 C 232.549 271.437 234.863 269.548 236.308 267.33 C 262.267 227.466 288.186 187.577 313.883 147.544 C 320.556 137.149 337.487 134.003 345.966 146.887 C 354.979 160.583 364.183 174.153 373.204 187.844 C 385.697 206.804 398.001 225.888 410.566 244.799 C 420.091 259.134 427.638 275.537 446.383 280.72 C 446.54 280.764 446.692 280.945 446.829 280.927 C 448.512 280.716 450.819 281.1 451.764 280.144 C 455.931 275.928 459.648 271.274 463.633 266.874 C 470.031 259.809 478.896 259.966 485.065 267.139 C 494.686 278.326 504.22 289.591 514 300.639 C 518.922 306.2 523.631 312.327 529.629 316.473 C 539.684 323.424 550.671 329.031 561.308 335.131 C 566.833 338.3 569.222 342.719 568.096 348.69 C 567.041 354.288 566.896 379.026 561.772 379.518 M 387.709 440.675 C 385.305 439.36 382.902 438.045 380.499 436.73 C 380.015 437.028 379.532 437.325 379.049 437.622 C 382.268 445.273 385.431 452.95 388.782 460.543 C 389.178 461.44 390.572 461.949 391.57 462.52 C 414.662 475.729 437.759 488.93 460.878 502.09 C 461.815 502.624 463.3 503.35 463.99 502.98 C 469.571 499.988 475.022 496.755 481.449 493.056 C 470.888 487.174 461.414 481.921 451.961 476.629 C 430.761 464.761 409.571 452.874 387.709 440.675 M 233.749 482.244 C 243.275 476.356 252.81 470.482 262.323 464.572 C 265.532 462.579 270.042 461.219 271.596 458.309 C 275.493 451.013 278.04 442.996 281.427 434.521 C 248.31 454.321 215.998 473.64 183.184 493.259 C 189.083 496.409 194.09 499.235 199.26 501.722 C 200.339 502.241 202.291 501.957 203.379 501.29 C 213.357 495.173 223.233 488.89 233.749 482.244 M 327.474 575.181 C 328.934 575.707 330.876 577.111 331.774 576.617 C 337.467 573.485 342.928 569.933 349.092 566.134 C 343.306 560.371 337.917 555.254 332.845 549.839 C 330.555 547.395 328.55 547.556 326.588 549.616 C 321.602 554.852 316.792 560.255 311.706 565.816 C 316.973 568.91 321.93 571.822 327.474 575.181 Z" transform="matrix(0.9999999999999999, 0, 0, 0.9999999999999999, 0, 0)"/>
  <path fill="#0995F2" opacity="1.000000" stroke="none" d="M 330.057 160.554 C 335.564 167.969 341.388 175.171 346.521 182.837 C 365.577 211.3 384.406 239.915 403.315 268.477 C 403.864 269.305 404.47 270.126 404.845 271.035 C 408.628 280.199 414.145 287.702 423.985 291.044 C 431.492 293.594 435.786 299.758 440.374 305.558 C 453.771 322.498 467.195 339.418 480.432 356.483 C 486.99 364.938 492.873 373.931 499.676 382.172 C 501.771 384.71 505.988 385.417 509.083 387.221 C 533.063 401.207 557 415.266 580.971 429.267 C 583.3 430.628 585.197 432.319 583.879 435.091 C 583.089 436.755 581.473 438.266 579.865 439.258 C 575.116 442.186 569.965 444.506 565.414 447.697 C 562.951 449.425 561.784 449.019 559.447 447.605 C 547.449 440.352 535.175 433.558 523.175 426.308 C 520.064 424.429 517.091 421.864 514.93 418.963 C 509.605 411.809 504.866 404.221 499.731 396.92 C 497.241 393.379 493.992 391.045 489.227 391.921 C 484.572 392.776 481.234 395.744 481.025 400.033 C 480.859 403.416 482.598 407.302 484.527 410.298 C 489.339 417.772 495.26 424.562 499.748 432.207 C 503.53 438.649 508.931 442.056 515.342 445.161 C 524.514 449.602 533.234 454.974 543.074 460.466 C 537.539 463.284 532.971 465.824 528.199 467.891 C 526.976 468.42 524.865 467.869 523.572 467.112 C 512.588 460.686 501.171 454.803 491.024 447.23 C 486.584 443.917 484.185 437.294 481.95 431.736 C 478.434 422.989 475.642 413.931 472.955 404.882 C 471.887 401.287 472.57 397.13 471.309 393.643 C 468.845 386.831 465.865 380.163 462.585 373.695 C 451.129 351.102 439.392 328.652 427.917 306.069 C 425.611 301.531 422.59 298.256 417.323 298.463 C 409.723 298.762 405.595 306.137 409.131 313.305 C 415.493 326.2 422.127 338.963 428.747 351.729 C 432.788 359.521 436.301 367.721 441.324 374.838 C 449.04 385.77 450.928 398.415 454.443 410.735 C 458.963 426.575 463.699 442.386 472.137 456.85 C 476.414 464.182 483.438 467.202 490.04 471.138 C 494.792 473.971 499.623 476.671 504.418 479.431 C 504.266 479.942 504.113 480.453 503.961 480.964 C 502.778 480.776 501.418 480.904 500.439 480.354 C 486.456 472.484 472.508 464.552 458.617 456.52 C 457.707 455.994 456.916 454.592 456.781 453.509 C 456.228 449.053 456.701 444.337 455.431 440.128 C 451.424 426.846 446.833 413.74 442.405 400.587 C 440.37 394.543 434.598 391.254 429.355 393 C 423.24 395.036 420.821 400.671 423.292 407.522 C 427.608 419.484 432.021 431.411 435.529 444.435 C 431.849 442.603 428.087 440.918 424.502 438.915 C 409.637 430.609 394.839 422.181 379.971 413.88 C 378.431 413.02 376.588 412.704 374.436 411.73 C 370.376 401.974 357.931 385.185 352.14 368.789 L 375.015 316.65 C 375.015 316.65 353.223 243.91 342.238 222.861 C 339.483 217.583 335.924 213.57 329.58 212.565 C 329.591 205.975 329.549 199.855 329.613 193.736 C 329.728 182.675 329.905 171.615 330.057 160.554 M 372.002 359.709 C 376.134 372.461 380.274 385.212 384.396 397.968 C 386.253 403.713 393.413 408.05 398.437 406.442 C 403.958 404.674 406.158 398.936 403.738 391.961 C 398.212 376.032 392.6 360.133 386.961 344.244 C 385.142 339.117 379.499 336.683 373.87 338.422 C 369.253 339.847 366.908 344.326 368.344 349.628 C 369.207 352.814 370.579 355.862 372.002 359.709 Z" transform="matrix(0.9999999999999999, 0, 0, 0.9999999999999999, 0, 0)"/>
  <path fill="#0995F2" opacity="1.000000" stroke="none" d="M 330.928 617.87 C 330.735 612.272 330.216 605.317 330.309 599.541 C 342.242 592.561 354.536 587.181 366.363 580.584 C 385.584 569.862 404.759 559.057 423.953 548.288 C 448.352 534.598 472.687 520.794 497.167 507.252 C 520.185 494.519 543.351 482.054 566.46 469.487 C 572.211 466.359 577.992 463.289 584.921 459.569 C 584.921 465.314 585.249 469.738 584.746 474.066 C 584.567 475.604 582.623 477.35 581.054 478.249 C 559.509 490.591 537.92 502.856 516.281 515.031 C 485.706 532.235 455.112 549.405 424.465 566.482 C 396.573 582.025 368.61 597.439 340.653 612.865 C 337.518 614.594 334.369 616.574 330.928 617.87 Z" transform="matrix(0.9999999999999999, 0, 0, 0.9999999999999999, 0, 0)"/>
  <path fill="#0995F2" opacity="1.000000" stroke="none" d="M 331.071 383.56 C 340.441 401.04 350.428 418.225 358.944 436.111 C 363.893 446.504 366.575 457.991 370.079 469.049 C 371.441 473.346 374.332 475.662 378.131 477.779 C 398.917 489.361 419.567 501.187 440.246 512.96 C 441.031 513.407 441.634 514.173 442.69 515.12 C 438.077 517.857 433.95 520.503 429.605 522.722 C 428.699 523.185 426.847 522.318 425.673 521.643 C 420.953 518.928 416.219 516.209 411.732 513.138 C 410.255 512.128 409.183 510.18 408.492 508.436 C 406.481 503.364 401.049 499.669 396.196 500.405 C 391.156 501.17 386.79 506.357 386.349 512.104 C 385.948 517.336 389.721 521.549 394.545 523.827 C 399.484 526.158 403.757 529.9 409.037 533.515 C 403.184 536.81 398.203 539.615 392.669 542.731 C 390.539 538.917 388.524 535.417 386.611 531.862 C 372.197 505.08 357.907 478.23 343.315 451.546 C 340.367 446.154 335.9 441.25 327.832 441.99 C 327.4 438.704 327.52 435.677 327.94 432.84 C 336.709 432.52 341.718 427.621 339.823 420.143 C 338.414 414.583 333.929 412.538 328.6 411.586 C 329.427 401.952 330.249 392.756 331.071 383.56 Z" transform="matrix(0.9999999999999999, 0, 0, 0.9999999999999999, 0, 0)"/>
  <path fill="#0995F2" opacity="1.000000" stroke="none" d="M 557.614 355.471 C 566.041 358.346 567.069 364.531 566.508 372.067 C 565.954 379.505 566.123 387.94 565.912 395.901 C 552.98 388.67 557.198 391.133 552.928 388.792 C 541.656 382.615 530.632 375.952 519.129 370.248 C 512.446 366.934 509.021 361.085 504.835 355.707 C 493.371 340.978 481.924 326.234 470.679 311.339 C 469.496 309.773 468.961 306.997 469.392 305.065 C 470.75 298.98 472.712 293.029 474.843 285.628 C 481.131 292.593 486.637 298.439 491.855 304.532 C 499.379 313.317 506.337 322.62 514.276 331.001 C 517.393 334.291 522.548 335.62 526.704 337.966 C 536.923 343.733 547.101 349.573 557.614 355.471 M 527.094 370.626 C 527.746 370.731 528.412 370.783 529.049 370.948 C 534.672 372.412 539.054 370.708 541.674 366.015 C 543.823 362.166 543.066 355.074 540.18 352.036 C 536.402 348.056 530.862 347.123 526.178 349.679 C 517.821 354.238 517.911 364.225 527.094 370.626 Z" transform="matrix(0.9999999999999999, 0, 0, 0.9999999999999999, 0, 0)"/>
  <path fill="#7DDEF2" opacity="1.000000" stroke="none" d="M 216.521 379.989 C 219.363 378.544 222.02 377.469 224.428 375.987 C 227.227 374.265 229.716 372.043 232.499 370.292 C 238.867 366.286 238.933 366.323 244.209 371.755 C 245.789 373.382 247.175 375.197 248.919 377.241 C 254.517 372.352 260.225 367.609 266.087 363.331 C 262.937 372.984 259.215 382.226 255.451 391.337 C 253.155 396.897 254.561 401.777 259.899 404.806 C 264.312 407.311 269.763 405.741 272.812 401.063 C 273.521 399.976 274.148 398.835 274.813 397.719 C 277.88 399.401 280.946 401.082 284.464 403.215 C 284.217 406.56 283.518 409.454 282.82 412.348 C 280.211 413.285 277.351 413.813 275.032 415.226 C 258.478 425.315 242.036 435.587 225.544 445.777 C 225.2 445.989 224.676 445.909 223.348 446.078 C 225.451 441.458 227.38 437.389 229.168 433.259 C 232.483 425.597 229.167 419.995 220.562 418.583 C 221.537 413.414 222.735 408.633 224.312 403.984 C 231.822 405.539 236.597 403.243 238.641 397.409 C 240.303 392.665 237.785 386.443 233.073 383.96 C 226.997 380.757 215.844 384.662 216.681 396.197 C 215.902 396.964 215.41 397.599 215.027 398.294 C 211.195 405.233 207.381 412.183 203.563 419.129 C 204.888 415.213 206.467 411.36 207.468 407.362 C 208.504 403.224 209.599 398.939 209.555 394.729 C 209.491 388.613 213.582 384.818 216.521 379.989 Z" transform="matrix(0.9999999999999999, 0, 0, 0.9999999999999999, 0, 0)"/>
  <path fill="#7DDEF2" opacity="1.000000" stroke="none" d=" M328.108795,432.932800 C328.083008,435.677338 328.057220,438.421906 328.077881,441.622864 C322.159698,443.764862 319.143951,448.505646 316.427124,453.491333 C306.467926,471.767548 296.488037,490.032990 286.642853,508.370605 C280.715576,519.410706 275.023132,530.576904 268.940216,542.232422 C263.480316,539.284058 258.171753,536.417358 251.682739,532.913208 C256.501617,529.582520 260.555725,526.097290 265.188873,523.759705 C270.385040,521.138123 274.377197,516.129150 273.656219,511.243408 C272.797943,505.427124 268.944885,501.429108 263.786591,501.002319 C257.158661,500.453979 252.334015,503.980438 249.959488,509.959381 C249.068604,512.202576 246.488022,513.964417 244.353134,515.491943 C233.511200,523.249390 233.473892,523.197144 222.236603,516.086792 C221.549530,515.652039 220.861710,515.218506 219.635452,514.444153 C239.710251,502.149628 259.552551,489.997467 279.713501,478.109589 C282.181946,481.341522 284.331818,484.309174 287.132080,488.174622 C290.825256,483.568542 294.930420,480.206116 296.741638,475.882660 C304.210663,458.053772 310.983765,439.933350 318.117920,422.311279 C318.851837,429.501038 320.831482,431.549713 328.108795,432.932800 z" transform="matrix(0.9999999999999999, 0, 0, 0.9999999999999999, 0, 0)"/>
  <path fill="#7DDEF2" opacity="1.000000" stroke="none" d="M 163.533 396.485 C 169.41 388.919 175.634 381.16 181.959 373.555 C 185.55 369.236 189.529 365.171 192.594 360.506 C 194.942 356.93 197.598 355.681 201.648 355.929 C 203.897 356.067 206.197 355.377 208.922 355.018 C 203.768 365.073 198.132 375.152 192.596 385.285 C 191.658 387.001 190.509 388.961 190.538 390.791 C 190.768 405.465 182.343 417.417 178.218 430.705 C 177.095 434.323 175.308 437.73 174.047 441.313 C 172.368 446.087 169.035 449.223 164.85 451.827 C 157.438 456.438 150.074 461.141 142.878 466.08 C 140.202 467.917 138.153 468.258 135.4 466.328 C 132.456 464.263 129.155 462.707 124.876 460.287 C 131.813 456.155 137.804 451.838 144.399 448.859 C 151.888 445.477 156.675 439.934 160.814 433.245 C 165.132 426.268 169.933 419.592 174.378 412.691 C 176.79 408.947 178.337 404.743 176.111 400.478 C 173.49 395.455 168.781 395.768 163.533 396.485 Z" transform="matrix(0.9999999999999999, 0, 0, 0.9999999999999999, 0, 0)"/>
  <path fill="#0995F2" opacity="1.000000" stroke="none" d=" M388.042908,440.834778 C409.571167,452.873840 430.760681,464.760834 451.960846,476.628845 C461.413635,481.920593 470.887787,487.174255 481.449066,493.056030 C475.022125,496.754700 469.570831,499.988098 463.990265,502.980408 C463.300293,503.350403 461.815460,502.623993 460.878296,502.090485 C437.758911,488.929657 414.662018,475.729248 391.570160,462.520111 C390.571655,461.948914 389.178101,461.439758 388.782104,460.542633 C385.430542,452.949646 382.268250,445.273071 379.049133,437.621613 C379.532257,437.324585 380.015381,437.027527 380.498505,436.730499 C382.901855,438.045319 385.305176,439.360107 388.042908,440.834778 z" transform="matrix(0.9999999999999999, 0, 0, 0.9999999999999999, 0, 0)"/>
  <path fill="#7DDEF2" opacity="1.000000" stroke="none" d=" M233.443710,482.449890 C223.233093,488.890015 213.357117,495.173157 203.379257,501.290100 C202.291092,501.957214 200.338913,502.241364 199.259552,501.722046 C194.090210,499.234711 189.083435,496.409454 183.184479,493.258575 C215.997757,473.640015 248.310257,454.320862 281.426849,434.520966 C278.040009,442.995667 275.492859,451.012756 271.596191,458.309082 C270.041962,461.219269 265.532288,462.578735 262.323364,464.572296 C252.810364,470.482178 243.275177,476.356354 233.443710,482.449890 z" transform="matrix(0.9999999999999999, 0, 0, 0.9999999999999999, 0, 0)"/>
  <path fill="#0995F2" opacity="1.000000" stroke="none" d="M 283.097 412.588 C 283.518 409.454 284.217 406.56 284.805 403.243 C 284.695 402.82 284.735 402.793 285.123 402.702 C 285.63 401.384 285.75 400.158 285.871 398.931 C 296.748 370.716 329.153 293.009 329.153 293.009 C 329.153 293.009 328.336 328.729 328.299 341.564 C 319.709 345.729 317.62 349.058 319.767 358.36 C 320.154 360.034 319.604 362.298 318.708 363.836 C 309.499 379.643 299.937 395.247 290.933 411.167 C 288.558 415.366 285.971 412.767 283.097 412.588 Z" transform="matrix(0.9999999999999999, 0, 0, 0.9999999999999999, 0, 0)"/>
  <path fill="#7DDEF2" opacity="1.000000" stroke="none" d="M 328.278 341.169 C 327.913 328.245 328.973 289.801 328.973 289.801 C 328.973 289.801 346.222 327.983 348.41 334.179 C 354.201 350.575 387.086 418.468 393.19 421.427 L 368.28 410.153 C 359.75 395.066 350.888 380.166 342.476 365.015 C 341.035 362.42 340.454 358.84 340.789 355.863 C 341.727 347.518 337.147 341.633 328.278 341.169 Z" transform="matrix(0.9999999999999999, 0, 0, 0.9999999999999999, 0, 0)"/>
  <path fill="#0995F2" opacity="1.000000" stroke="none" d=" M330.124084,466.917847 C331.541321,469.065399 333.152985,471.110565 334.346069,473.376160 C347.910889,499.135498 361.411743,524.928467 374.924072,550.701660 C367.620789,556.699585 367.973297,557.913940 361.095520,550.909363 C352.960358,542.624268 345.125580,534.044189 337.150726,525.581482 C343.793030,515.314331 341.053101,506.401794 330.377869,504.438232 C330.036133,491.584808 330.080109,479.251312 330.124084,466.917847 z" transform="matrix(0.9999999999999999, 0, 0, 0.9999999999999999, 0, 0)"/>
  <path fill="#7DDEF2" opacity="1.000000" stroke="none" d=" M329.756042,466.969025 C330.080109,479.251312 330.036133,491.584808 329.985535,504.375366 C325.163452,504.678741 321.665680,506.782654 319.684479,511.143341 C317.405609,516.159119 318.412018,520.150757 322.989899,525.407227 C314.198425,534.679077 305.490845,544.023071 296.522095,553.109314 C295.452332,554.193115 292.814728,554.464172 291.161438,554.059509 C288.866943,553.497864 286.816193,551.940125 284.654388,550.805359 C299.717041,522.593262 314.552551,494.806732 329.756042,466.969025 z" transform="matrix(0.9999999999999999, 0, 0, 0.9999999999999999, 0, 0)"/>
  <path fill="#7DDEF2" opacity="1.000000" stroke="none" d=" M87.914703,438.467224 C96.532684,432.546265 105.368271,426.922363 114.186806,421.271881 C115.569473,420.385895 117.064552,419.561768 118.184334,418.397980 C124.461143,411.874359 131.049515,413.540497 137.298828,418.010132 C140.791748,420.508331 143.540787,421.489227 146.962097,417.872864 C145.399948,422.097137 143.374969,425.818237 138.915176,428.367462 C128.623749,434.250061 118.825012,440.989594 108.695251,447.166351 C107.409950,447.950104 105.017860,448.090790 103.690041,447.426697 C98.383919,444.772888 93.295601,441.683594 87.914703,438.467224 z" transform="matrix(0.9999999999999999, 0, 0, 0.9999999999999999, 0, 0)"/>
  <path fill="#0995F2" opacity="1.000000" stroke="none" d=" M327.179718,574.957153 C321.929504,571.822021 316.973389,568.910461 311.705841,565.816040 C316.791718,560.255310 321.602081,554.851685 326.588440,549.615601 C328.549683,547.556213 330.555023,547.394775 332.844513,549.838806 C337.916809,555.253662 343.306213,560.371399 349.092194,566.134033 C342.928345,569.933289 337.466888,573.485107 331.774384,576.616943 C330.876129,577.111206 328.933502,575.707153 327.179718,574.957153 z" transform="matrix(0.9999999999999999, 0, 0, 0.9999999999999999, 0, 0)"/>
  <path fill="#F8FDFE" opacity="1.000000" stroke="none" d=" M223.932373,403.851166 C222.734726,408.632812 221.537064,413.414429 220.170593,418.514771 C213.291199,419.269897 211.086395,424.166534 209.293915,429.549377 C208.414978,432.188843 207.325775,434.758270 205.775635,437.701904 C203.284485,438.886658 201.349396,439.728912 198.882828,440.802490 C198.486237,438.526459 198.153061,436.614380 197.819901,434.702301 C199.618698,429.690338 201.417511,424.678406 203.389465,419.397797 C207.381332,412.182526 211.195007,405.233154 215.026505,398.293579 C215.409927,397.599121 215.901581,396.964447 216.822357,396.495605 C219.511932,399.076508 221.722153,401.463837 223.932373,403.851166 z" transform="matrix(0.9999999999999999, 0, 0, 0.9999999999999999, 0, 0)"/>
  <path fill="#7DDEF2" opacity="1.000000" stroke="none" d=" M197.526154,434.929443 C198.153061,436.614380 198.486237,438.526459 198.882828,440.802490 C201.349396,439.728912 203.284485,438.886658 205.569733,437.997192 C204.325394,444.221466 199.871887,449.999268 202.990356,456.983643 C190.396759,464.792084 178.138611,472.519958 165.703644,479.951965 C164.025589,480.954895 161.458359,480.470062 159.302872,480.674133 C159.146881,480.082367 158.990906,479.490570 158.834930,478.898804 C164.163467,475.727692 169.278519,472.091827 174.881470,469.518097 C180.324799,467.017761 184.070908,462.989349 186.664185,458.100830 C190.603973,450.674011 193.749496,442.825806 197.526154,434.929443 z" transform="matrix(0.9999999999999999, 0, 0, 0.9999999999999999, 0, 0)"/>
  <path fill="#7DDEF2" opacity="1.000000" stroke="none" d=" M105.360252,395.325195 C105.001503,389.862335 105.025841,384.362610 105.366013,378.611084 C107.072777,383.357147 110.267197,383.848236 114.389381,381.764648 C116.295013,380.801453 118.126595,379.686493 119.962013,378.590546 C126.981438,374.399231 133.988739,370.187622 141.000580,365.983643 C140.808624,368.214996 140.616653,370.446381 140.731049,372.907715 C129.272736,380.521210 117.508041,387.904785 105.360252,395.325195 z" transform="matrix(0.9999999999999999, 0, 0, 0.9999999999999999, 0, 0)"/>
  <path fill="#0995F2" opacity="1.000000" stroke="none" d=" M532.830994,205.971024 C542.382996,211.317490 551.592773,216.519745 560.912415,221.517075 C565.037048,223.728790 566.630188,226.779709 566.489868,231.513153 C566.184021,241.832565 566.409607,252.167313 566.389771,262.495758 C566.378662,268.301727 564.393860,270.356903 558.766479,270.388000 C552.936096,270.420197 547.104370,270.460175 541.275085,270.373505 C536.645630,270.304688 533.888916,267.779999 533.629272,263.623962 C533.357666,259.276947 536.365845,255.311951 540.471130,254.616013 C541.450745,254.449951 542.432800,254.190323 543.416809,254.175644 C550.605164,254.068466 549.819336,253.975449 550.796753,246.944885 C552.118225,237.440414 547.967773,232.993362 539.891418,228.911346 C516.354736,217.015228 493.279877,204.205521 470.024628,191.752716 C466.977325,190.120911 463.921631,188.504150 460.891571,186.840790 C455.464752,183.861755 453.651123,178.002853 456.590942,173.044037 C458.965790,169.038132 463.992401,168.553268 469.342163,171.471344 C490.378479,182.945694 511.465363,194.327377 532.830994,205.971024 z" transform="matrix(0.9999999999999999, 0, 0, 0.9999999999999999, 0, 0)"/>
  <path fill="#0995F2" opacity="1.000000" stroke="none" d=" M328.229950,98.771652 C333.272430,96.252922 337.354553,98.363419 341.308533,100.464500 C354.303772,107.370003 367.235413,114.395233 380.190216,121.376831 C382.509491,122.626732 384.876404,123.799057 387.127960,125.161537 C392.500793,128.412842 393.955231,132.636520 391.528625,137.586960 C389.707275,141.302536 384.384125,142.836853 379.323608,140.389908 C371.604462,136.657425 364.109833,132.457703 356.546478,128.406738 C351.317963,125.606316 345.975830,122.973267 340.969543,119.813667 C334.272308,115.586853 328.201172,116.353004 321.731201,120.438698 C311.461304,126.923973 300.937561,133.009048 290.476166,139.187195 C289.084808,140.008896 287.459412,140.483917 285.891724,140.948257 C281.267151,142.318039 276.932312,140.683441 275.284271,137.038300 C273.583679,133.276917 274.968658,127.879890 278.841339,125.724724 C295.111481,116.670280 311.501923,107.831932 328.229950,98.771652 z" transform="matrix(0.9999999999999999, 0, 0, 0.9999999999999999, 0, 0)"/>
  <path fill="#0995F2" opacity="1.000000" stroke="none" d=" M105.605042,230.378662 C107.193466,227.423965 108.205238,224.003922 110.470268,222.586288 C119.828316,216.729324 129.525742,211.406586 139.181274,206.036438 C143.959106,203.379135 149.547836,204.876602 151.763138,209.096817 C153.878403,213.126480 152.000931,218.037354 147.260696,220.740921 C139.425491,225.209656 131.630081,229.753662 123.696175,234.040665 C121.122978,235.431076 120.215057,237.136368 120.342064,239.970505 C120.542496,244.443359 120.395393,248.931778 120.395393,253.882462 C123.893013,254.132599 127.194435,254.438324 130.502914,254.588318 C134.985184,254.791534 137.354858,257.403931 137.394394,262.360077 C137.437225,267.729462 135.183624,270.253296 130.296783,270.401978 C124.824814,270.568420 119.353638,270.768280 113.883675,270.991577 C107.789642,271.240387 105.635437,269.300690 105.615112,263.293671 C105.578514,252.473923 105.604721,241.653976 105.605042,230.378662 z" transform="matrix(0.9999999999999999, 0, 0, 0.9999999999999999, 0, 0)"/>
  <path fill="#0995F2" opacity="1.000000" stroke="none" d=" M141.228760,365.738342 C133.988739,370.187622 126.981438,374.399231 119.962013,378.590546 C118.126595,379.686493 116.295013,380.801453 114.389381,381.764648 C110.267197,383.848236 107.072777,383.357147 105.411095,378.140137 C103.562218,370.931824 106.992584,366.896484 112.778831,363.556488 C121.596550,358.466614 129.999817,352.662445 138.761978,347.470276 C141.172852,346.041748 144.517899,344.584290 146.918762,345.188507 C149.399582,345.812866 152.334885,348.574646 153.143082,351.034851 C154.577011,355.399841 151.983826,358.951324 148.136856,361.355713 C145.915848,362.743835 143.683929,364.114502 141.228760,365.738342 z" transform="matrix(0.9999999999999999, 0, 0, 0.9999999999999999, 0, 0)"/>
  <path fill="#0995F2" opacity="1.000000" stroke="none" d=" M453.792175,229.040466 C449.583527,231.746490 445.728516,234.283524 441.650146,236.387451 C440.481232,236.990448 438.449829,236.796768 437.181244,236.194580 C425.760529,230.773331 423.791229,227.001541 425.685059,214.352829 C425.847137,213.270462 426.797119,212.089264 427.708954,211.369156 C437.776184,203.418945 438.324921,203.562500 449.321503,209.834702 C453.078400,211.977539 455.069916,214.307999 454.460419,218.786880 C454.016235,222.051208 454.172424,225.397232 453.792175,229.040466 z" transform="matrix(0.9999999999999999, 0, 0, 0.9999999999999999, 0, 0)"/>
  <path fill="#0995F2" opacity="1.000000" stroke="none" d=" M257.749207,159.143646 C258.772522,159.742737 259.404510,160.353836 260.157837,160.615234 C268.689972,163.575867 269.109894,170.325775 268.433289,177.775208 C268.070435,181.770187 265.208954,183.250229 262.273804,184.733490 C259.115814,186.329376 255.413559,189.537537 252.763840,188.859055 C248.052246,187.652649 243.602844,184.478958 239.711060,181.308960 C236.526855,178.715271 238.818680,165.784119 242.330276,163.454681 C244.789917,161.823059 247.320770,160.298157 249.768463,158.649353 C252.433151,156.854385 254.954117,156.908508 257.749207,159.143646 z" transform="matrix(0.9999999999999999, 0, 0, 0.9999999999999999, 0, 0)"/>
  <path fill="#0995F2" opacity="1.000000" stroke="none" d=" M412.324524,187.632782 C409.585632,189.725281 407.256409,189.384262 404.756653,187.818741 C401.962708,186.068985 398.877289,184.768906 396.162262,182.916229 C394.995972,182.120377 393.861328,180.492462 393.703094,179.127686 C392.273499,166.797485 393.221008,165.516769 403.905762,159.139877 C407.298065,157.115265 409.750336,156.979675 412.692261,159.398193 C413.812164,160.318832 415.309845,160.782471 416.640869,161.443237 C421.415100,163.813293 423.059631,166.556229 422.989807,172.875504 C422.895813,181.383392 418.802338,184.515930 412.324524,187.632782 z" transform="matrix(0.9999999999999999, 0, 0, 0.9999999999999999, 0, 0)"/>
  <path fill="#0995F2" opacity="1.000000" stroke="none" d=" M236.236298,227.336914 C231.612534,230.886124 227.129395,234.068100 222.524551,237.062943 C221.939163,237.443649 220.643784,237.016479 219.808823,236.657654 C218.767548,236.210190 217.943283,235.167847 216.886337,234.860733 C206.939407,231.970566 206.707565,224.266357 207.700241,216.132141 C207.910797,214.406982 208.929581,212.319824 210.263336,211.287537 C213.106186,209.087234 216.352097,207.380264 219.540909,205.673004 C220.378357,205.224655 221.614243,205.448547 222.661057,205.496582 C223.116302,205.517471 223.558746,205.868423 224.002640,206.078690 C236.601517,212.046738 236.601410,212.046951 236.236298,227.336914 z" transform="matrix(0.9999999999999999, 0, 0, 0.9999999999999999, 0, 0)"/>
  <path fill="#0995F2" opacity="1.000000" stroke="none" d=" M482.216644,236.148987 C480.884857,231.973633 481.227112,227.827530 484.837494,226.251724 C487.736816,224.986282 492.057770,224.990570 495.003021,226.218323 C501.803558,229.053223 508.227570,232.840073 514.658386,236.497299 C519.487244,239.243469 521.202881,244.422882 519.093445,248.595642 C517.387207,251.970810 511.805054,253.231155 507.218109,251.014389 C500.251068,247.647354 493.321564,244.191559 486.503296,240.536224 C484.892792,239.672852 483.788818,237.864731 482.216644,236.148987 z" transform="matrix(0.9999999999999999, 0, 0, 0.9999999999999999, 0, 0)"/>
  <path fill="#0995F2" opacity="1.000000" stroke="none" d=" M182.095459,226.623703 C186.954910,231.331619 186.701019,238.038254 181.614014,241.114319 C175.706039,244.686813 169.607132,247.954590 163.500961,251.184250 C159.767487,253.158966 155.392395,251.809326 153.296494,248.349945 C150.965897,244.503265 151.861099,239.164841 155.450073,236.840851 C160.839661,233.350922 166.118332,229.554947 171.896774,226.859360 C174.628937,225.584839 178.410751,226.560410 182.095459,226.623703 z" transform="matrix(0.9999999999999999, 0, 0, 0.9999999999999999, 0, 0)"/>
  <path fill="#0995F2" opacity="1.000000" stroke="none" d=" M556.713867,306.395569 C552.093689,306.395355 547.940308,306.469391 543.790710,306.375458 C538.643616,306.258881 535.557312,302.970428 535.606079,297.837006 C535.661011,292.044952 537.940796,289.694977 543.715271,289.616516 C548.032227,289.557861 552.350769,289.584717 556.668396,289.609589 C562.675354,289.644196 566.257874,292.657043 566.392273,297.742981 C566.528625,302.905121 563.300964,305.937347 556.713867,306.395569 z" transform="matrix(0.9999999999999999, 0, 0, 0.9999999999999999, 0, 0)"/>
  <path fill="#0995F2" opacity="1.000000" stroke="none" d=" M209.227417,185.326385 C204.299454,187.755997 199.760117,190.106613 195.173843,192.361786 C191.697418,194.071213 188.387253,194.137009 185.905960,190.635773 C183.611938,187.398758 184.015564,181.280060 187.017456,179.236542 C191.485779,176.194733 196.175705,173.428299 200.976532,170.940674 C204.961243,168.875931 209.295578,170.309540 211.830780,173.933395 C214.512115,177.766052 213.887100,180.918640 209.227417,185.326385 z" transform="matrix(0.9999999999999999, 0, 0, 0.9999999999999999, 0, 0)"/>
  <path fill="#0995F2" opacity="1.000000" stroke="none" d=" M120.923035,306.395599 C117.949783,306.395599 115.458549,306.421112 112.968018,306.389893 C107.521828,306.321655 104.544273,303.192719 104.610512,297.646362 C104.673767,292.350555 107.466949,289.662415 113.032249,289.611816 C117.017395,289.575623 121.003403,289.575256 124.988533,289.611877 C130.619385,289.663574 134.282211,292.863007 134.320343,297.702271 C134.361099,302.876129 130.726257,306.233002 124.892532,306.390320 C123.730942,306.421661 122.567795,306.395203 120.923035,306.395599 z" transform="matrix(0.9999999999999999, 0, 0, 0.9999999999999999, 0, 0)"/>
  <path fill="#04213B" opacity="1.000000" stroke="none" d=" M372.366211,320.705139 C361.787476,300.645538 351.535553,280.763458 341.251190,260.898163 C337.619843,253.883850 333.909332,246.910538 329.932007,239.342056 C326.254883,246.265762 322.843811,252.717758 319.406250,259.155640 C309.091003,278.473999 298.773407,297.791107 288.440033,317.099792 C284.154785,325.107178 278.063904,328.340027 271.798218,325.821991 C267.556976,324.117523 265.338562,320.774536 265.016022,316.255463 C264.682251,311.579163 267.106018,308.530487 270.882019,306.059753 C272.951416,304.705688 275.151001,302.976349 276.298096,300.873993 C290.946136,274.026642 305.415558,247.081787 319.926086,220.159424 C321.897766,216.501205 324.490662,213.653900 329.242310,213.083191 C335.924286,213.570267 339.483368,217.582657 342.237976,222.860855 C356.241364,249.693115 370.309814,276.491455 384.423553,303.265808 C385.052338,304.458649 386.163391,305.704498 387.357391,306.240173 C393.270966,308.893341 395.300568,313.091309 393.189606,318.895386 C391.026733,324.842163 385.668854,327.633301 379.696289,325.410370 C377.149506,324.462524 375.006653,322.429321 372.366211,320.705139 z" transform="matrix(0.9999999999999999, 0, 0, 0.9999999999999999, 0, 0)"/>
  <path fill="#06233E" opacity="1.000000" stroke="none" d=" M371.862305,359.340271 C370.579163,355.861786 369.206757,352.813995 368.343903,349.628174 C366.907898,344.326324 369.253479,339.847412 373.870209,338.421631 C379.499481,336.683136 385.141663,339.116669 386.961304,344.244232 C392.599945,360.133301 398.211609,376.032318 403.737946,391.960693 C406.157928,398.935730 403.957855,404.674377 398.437225,406.441589 C393.412506,408.050049 386.252686,403.712738 384.396149,397.967560 C380.274078,385.211670 376.134491,372.461456 371.862305,359.340271 z" transform="matrix(0.9999999999999999, 0, 0, 0.9999999999999999, 0, 0)"/>
  <path fill="#05213C" opacity="1.000000" stroke="none" d=" M274.816895,397.343811 C274.148499,398.835358 273.520874,399.975586 272.812164,401.062988 C269.763245,405.740906 264.311951,407.310547 259.899445,404.806458 C254.560715,401.776733 253.154602,396.896881 255.451263,391.337189 C259.215057,382.225952 262.661255,372.983521 266.162292,363.412323 C266.083191,363.028259 266.040833,363.000732 266.369019,362.946472 C266.919128,362.253571 267.141052,361.614868 267.362946,360.976196 C269.213104,356.042389 271.037231,351.098633 272.919800,346.177216 C275.426086,339.625336 280.432892,337.059998 286.387512,339.223907 C291.929718,341.237946 293.482025,345.786041 290.929138,352.814880 C285.580841,367.540375 280.192352,382.251312 274.816895,397.343811 z" transform="matrix(0.9999999999999999, 0, 0, 0.9999999999999999, 0, 0)"/>
  <path fill="#7DDEF2" opacity="1.000000" stroke="none" d=" M285.609131,399.156372 C285.750458,400.157562 285.630371,401.384003 285.141296,402.686401 C284.964111,401.635468 285.155914,400.508575 285.609131,399.156372 z" transform="matrix(0.9999999999999999, 0, 0, 0.9999999999999999, 0, 0)"/>
  <path fill="#7DDEF2" opacity="1.000000" stroke="none" d=" M267.013519,361.072845 C267.141052,361.614868 266.919128,362.253571 266.369019,362.970459 C266.248596,362.422302 266.456360,361.795898 267.013519,361.072845 z" transform="matrix(0.9999999999999999, 0, 0, 0.9999999999999999, 0, 0)"/>
  <path fill="#072540" opacity="1.000000" stroke="none" d="M 318.118 422.311 C 320.124 417.444 322.419 412.493 328.452 411.603 C 334.117 412.068 338.414 414.583 339.823 420.143 C 341.718 427.621 337.273 432.52 328.503 432.84 C 320.831 431.55 318.852 429.501 318.118 422.311 Z" transform="matrix(0.9999999999999999, 0, 0, 0.9999999999999999, 0, 0)"/>
  <path fill="#082641" opacity="1.000000" stroke="none" d=" M526.729614,370.499878 C517.911316,364.224518 517.820801,354.237549 526.177979,349.678558 C530.861755,347.123474 536.401794,348.056152 540.180420,352.035828 C543.065552,355.074463 543.823181,362.166046 541.674011,366.015015 C539.053528,370.708160 534.672119,372.412231 529.049011,370.948303 C528.412354,370.782593 527.746155,370.730804 526.729614,370.499878 z" transform="matrix(0.9999999999999999, 0, 0, 0.9999999999999999, 0, 0)"/>
  <path fill="#05223D" opacity="1.000000" stroke="none" d=" M224.311798,403.984070 C221.722153,401.463837 219.511932,399.076508 217.159882,396.390747 C215.843948,384.661682 226.996582,380.757477 233.073273,383.959930 C237.785370,386.443237 240.302704,392.665100 238.640839,397.409149 C236.597031,403.243439 231.822311,405.539398 224.311798,403.984070 z" transform="matrix(0.9999999999999999, 0, 0, 0.9999999999999999, 0, 0)"/>
</svg>